# xmcd
#
# Track frame offsets:
#	150
#	20785
#	40157
#	55210
#	74112
#	91622
#	108965
#	129825
#	150368
#	171783
#	191318
#	210278
#	229915
#	248057
#	267492
#	290999
#	309526
#
# Disc length: 4438 seconds
#
# Revision: 0
# Processed by: cddbd v1.5.2PL0 Copyright (c) Steve Scherf et al.
# Submitted via: EZCDAudioConverter 7.1.7.1
#
DISCID=ea115411
DTITLE=刘德华 - 我们的刘德华(国) Disc 01
DYEAR=2012
DGENRE=
TTITLE0=悟
TTITLE1=Everyone is No.1
TTITLE2=一
TTITLE3=牧笛
TTITLE4=归宿
TTITLE5=心肝宝贝
TTITLE6=再说一次·我爱你
TTITLE7=幸福.这么远.那么甜
TTITLE8=太想爱
TTITLE9=练习
TTITLE10=肉麻情歌
TTITLE11=黑蝙蝠中队
TTITLE12=偷听女孩心
TTITLE13=我的心只可容纳妳
TTITLE14=男人哭吧不是罪
TTITLE15=我不够爱你(独唱版)
TTITLE16=你是我一生中最大的骄傲
EXTD=
EXTT0=
EXTT1=
EXTT2=
EXTT3=
EXTT4=
EXTT5=
EXTT6=
EXTT7=
EXTT8=
EXTT9=
EXTT10=
EXTT11=
EXTT12=
EXTT13=
EXTT14=
EXTT15=
EXTT16=
PLAYORDER=
